<?xml version="1.0" encoding="UTF-8"?>
<svg id="Capa_1" data-name="Capa 1" xmlns="http://www.w3.org/2000/svg" viewBox="0 0 1762.82 528.79">
  <defs>
    <style>
      .cls-1 {
        fill: none;
        stroke: #0c5d5b;
        stroke-miterlimit: 10;
        stroke-width: 16.56px;
      }

      .cls-2 {
        opacity: .2;
      }

      .cls-3 {
        fill: #010101;
      }
    </style>
  </defs>
  <g class="cls-2">
    <path class="cls-3" d="M0,8.15h142.32c86.82.18,130.23,36.37,130.23,108.59v77.56c0,45.4-25.68,75.29-77.03,89.66l109.85,240.05h-107.09l-88.09-226.9-12.44,1.31v225.59H0V8.15ZM97.76,81.51v147.76h22.45c13.58,0,22.91-.7,27.98-2.1,17.73-5.43,26.6-16.39,26.6-32.87v-77.56c0-23.49-14.16-35.23-42.49-35.23h-34.55Z"/>
    <path class="cls-3" d="M771.77,106.35c0-70.9,46.75-106.35,140.25-106.35s140.59,35.45,140.59,106.35v68.14h-97.76v-68.14c0-22.72-14.16-34.16-42.49-34.33h-.69c-28.1,0-42.14,11.45-42.14,34.33v45.94c0,22.55,30.51,50.16,91.54,82.86,61.02,32.52,91.54,71.5,91.54,116.93v64.02c0,71.07-46.75,106.6-140.25,106.6-93.73-.17-140.59-35.7-140.59-106.6v-68.15h97.76v68.15c0,22.89,14.27,34.33,42.83,34.33s42.49-11.44,42.49-34.33v-57.82c0-24.44-30.52-53-91.54-85.7-61.03-32.53-91.54-72.1-91.54-118.74v-47.49Z"/>
    <path class="cls-3" d="M1409.44,416.1c0,70.9-46.87,106.43-140.59,106.6-93.5,0-140.25-35.53-140.25-106.6V106.35c0-70.9,46.75-106.35,140.25-106.35s140.59,35.45,140.59,106.35v68.14h-97.76v-68.14c0-22.72-14.16-34.16-42.49-34.33h-.69c-28.1,0-42.14,11.45-42.14,34.33v309.75c0,22.89,14.16,34.33,42.49,34.33s42.84-11.44,42.84-34.33v-68.15h97.76v68.15Z"/>
    <path class="cls-3" d="M1762.82,416.1c0,70.9-46.87,106.43-140.59,106.6-93.5,0-140.25-35.53-140.25-106.6V106.35c0-70.9,46.75-106.35,140.25-106.35s140.59,35.45,140.59,106.35v309.75ZM1665.06,106.35c0-22.72-14.16-34.16-42.49-34.33h-.69c-28.1,0-42.14,11.45-42.14,34.33v309.75c0,22.89,14.16,34.33,42.49,34.33s42.84-11.44,42.84-34.33V106.35Z"/>
    <g>
      <line class="cls-1" x1="468.63" y1="35.96" x2="704.46" y2="271.78"/>
      <line class="cls-1" x1="495.1" y1="9.49" x2="730.92" y2="245.31"/>
      <line class="cls-1" x1="291.07" y1="318.51" x2="526.89" y2="82.69"/>
      <line class="cls-1" x1="264.02" y1="291.46" x2="499.84" y2="55.64"/>
      <line class="cls-1" x1="573.6" y1="496.01" x2="337.78" y2="260.19"/>
      <line class="cls-1" x1="546.68" y1="522.94" x2="310.86" y2="287.11"/>
      <line class="cls-1" x1="751.18" y1="213.59" x2="515.35" y2="449.41"/>
      <line class="cls-1" x1="778.12" y1="240.53" x2="542.3" y2="476.36"/>
    </g>
  </g>
</svg>